<svg data-v-fde0c5aa="" xmlns="http://www.w3.org/2000/svg" viewBox="0 0 300 300" class="iconAboveSlogan"><!----><defs data-v-fde0c5aa=""><!----></defs><rect data-v-fde0c5aa="" fill="transparent" x="0" y="0" width="300px" height="300px" class="logo-background-square"></rect><defs data-v-fde0c5aa=""><!----></defs><g data-v-fde0c5aa="" id="194c0c91-cc79-43f9-a672-b7d14cc49cfe" fill="#000000" transform="matrix(6.512495829934303,0,0,6.512495829934303,0.4730970489763999,143.16524565519416)"><path d="M1.79 13.02L1.79 13.02L1.16 13.02L1.16 13.02Q0.97 13.02 0.97 12.82L0.97 12.82L0.97 6.08L0.97 6.08Q0.97 5.88 1.16 5.88L1.16 5.88L1.79 5.88L1.79 5.88Q1.99 5.88 1.99 6.08L1.99 6.08L1.99 6.62L2.04 6.62L2.04 6.62Q2.44 5.88 3.53 5.88L3.53 5.88L4.05 5.88L4.05 5.88Q5.28 5.88 5.75 6.83L5.75 6.83L5.75 6.83Q5.98 6.37 6.46 6.12L6.46 6.12L6.46 6.12Q6.94 5.88 7.48 5.88L7.48 5.88L7.97 5.88L7.97 5.88Q8.92 5.88 9.45 6.43L9.45 6.43L9.45 6.43Q9.98 6.97 9.98 7.95L9.98 7.95L9.98 12.82L9.98 12.82Q9.98 13.02 9.79 13.02L9.79 13.02L9.16 13.02L9.16 13.02Q8.96 13.02 8.96 12.82L8.96 12.82L8.96 7.99L8.96 7.99Q8.96 6.78 7.78 6.78L7.78 6.78L7.32 6.78L7.32 6.78Q6.69 6.78 6.35 7.13L6.35 7.13L6.35 7.13Q6.01 7.49 6.01 8.11L6.01 8.11L6.01 12.82L6.01 12.82Q6.01 13.02 5.81 13.02L5.81 13.02L5.18 13.02L5.18 13.02Q4.98 13.02 4.98 12.82L4.98 12.82L4.98 7.99L4.98 7.99Q4.98 6.78 3.81 6.78L3.81 6.78L3.29 6.78L3.29 6.78Q2.66 6.78 2.32 7.11L2.32 7.11L2.32 7.11Q1.99 7.45 1.99 8.06L1.99 8.06L1.99 12.82L1.99 12.82Q1.99 13.02 1.79 13.02ZM14.98 13.02L14.98 13.02L13.78 13.02L13.78 13.02Q12.81 13.02 12.26 12.47L12.26 12.47L12.26 12.47Q11.70 11.93 11.70 10.95L11.70 10.95L11.70 7.95L11.70 7.95Q11.70 6.97 12.26 6.43L12.26 6.43L12.26 6.43Q12.81 5.88 13.78 5.88L13.78 5.88L14.98 5.88L14.98 5.88Q15.95 5.88 16.50 6.43L16.50 6.43L16.50 6.43Q17.05 6.97 17.05 7.95L17.05 7.95L17.05 10.95L17.05 10.95Q17.05 11.93 16.50 12.47L16.50 12.47L16.50 12.47Q15.95 13.02 14.98 13.02ZM13.89 12.12L13.89 12.12L14.87 12.12L14.87 12.12Q16.04 12.12 16.04 10.92L16.04 10.92L16.04 7.98L16.04 7.98Q16.04 6.78 14.87 6.78L14.87 6.78L13.89 6.78L13.89 6.78Q12.71 6.78 12.71 7.98L12.71 7.98L12.71 10.92L12.71 10.92Q12.71 12.12 13.89 12.12ZM20.01 12.12L20.01 12.12L21.99 12.12L21.99 12.12Q23.18 12.12 23.18 10.91L23.18 10.91L23.18 7.91L23.18 7.91Q23.18 6.69 21.99 6.69L21.99 6.69L21.17 6.69L21.17 6.69Q20.54 6.69 20.20 7.03L20.20 7.03L20.20 7.03Q19.87 7.36 19.87 7.97L19.87 7.97L19.87 12.00L19.87 12.00Q19.87 12.12 20.01 12.12ZM18.84 12.82L18.84 12.82L18.84 3.37L18.84 3.37Q18.84 3.18 19.04 3.18L19.04 3.18L19.67 3.18L19.67 3.18Q19.87 3.18 19.87 3.37L19.87 3.37L19.87 6.54L19.92 6.54L19.92 6.54Q20.27 5.80 21.35 5.80L21.35 5.80L22.13 5.80L22.13 5.80Q23.09 5.80 23.64 6.34L23.64 6.34L23.64 6.34Q24.19 6.89 24.19 7.85L24.19 7.85L24.19 10.95L24.19 10.95Q24.19 11.93 23.64 12.47L23.64 12.47L23.64 12.47Q23.09 13.02 22.13 13.02L22.13 13.02L19.04 13.02L19.04 13.02Q18.84 13.02 18.84 12.82ZM26.05 4.70L26.05 4.70L26.05 3.39L26.05 3.39Q26.05 3.19 26.24 3.19L26.24 3.19L26.88 3.19L26.88 3.19Q27.08 3.19 27.08 3.39L27.08 3.39L27.08 4.70L27.08 4.70Q27.08 4.90 26.88 4.90L26.88 4.90L26.24 4.90L26.24 4.90Q26.05 4.90 26.05 4.70ZM25.00 15.09L25.00 15.09L24.43 15.09L24.43 15.09Q24.23 15.09 24.23 14.90L24.23 14.90L24.23 14.38L24.23 14.38Q24.23 14.18 24.43 14.18L24.43 14.18L24.75 14.18L24.75 14.18Q26.05 14.18 26.05 12.87L26.05 12.87L26.05 6.08L26.05 6.08Q26.05 5.88 26.25 5.88L26.25 5.88L26.88 5.88L26.88 5.88Q27.08 5.88 27.08 6.08L27.08 6.08L27.08 13.01L27.08 13.01Q27.08 13.97 26.52 14.53L26.52 14.53L26.52 14.53Q25.97 15.09 25.00 15.09ZM33.98 13.02L33.98 13.02L31.01 13.02L31.01 13.02Q30.04 13.02 29.49 12.47L29.49 12.47L29.49 12.47Q28.94 11.93 28.94 10.95L28.94 10.95L28.94 7.95L28.94 7.95Q28.94 6.97 29.49 6.43L29.49 6.43L29.49 6.43Q30.04 5.88 31.01 5.88L31.01 5.88L32.19 5.88L32.19 5.88Q33.15 5.88 33.70 6.43L33.70 6.43L33.70 6.43Q34.24 6.97 34.24 7.95L34.24 7.95L34.24 9.73L34.24 9.73Q34.24 9.94 34.05 9.94L34.05 9.94L30.09 9.94L30.09 9.94Q29.95 9.94 29.95 10.07L29.95 10.07L29.95 10.92L29.95 10.92Q29.95 12.14 31.12 12.14L31.12 12.14L33.98 12.14L33.98 12.14Q34.17 12.14 34.17 12.33L34.17 12.33L34.17 12.84L34.17 12.84Q34.17 13.02 33.98 13.02ZM30.09 9.20L30.09 9.20L33.11 9.20L33.11 9.20Q33.25 9.20 33.25 9.06L33.25 9.06L33.25 7.98L33.25 7.98Q33.25 6.78 32.07 6.78L32.07 6.78L31.12 6.78L31.12 6.78Q29.95 6.78 29.95 7.98L29.95 7.98L29.95 9.06L29.95 9.06Q29.95 9.20 30.09 9.20ZM40.12 12.32L40.12 12.32L40.12 12.84L40.12 12.84Q40.12 13.02 39.93 13.02L39.93 13.02L37.90 13.02L37.90 13.02Q36.93 13.02 36.38 12.47L36.38 12.47L36.38 12.47Q35.83 11.93 35.83 10.95L35.83 10.95L35.83 7.95L35.83 7.95Q35.83 6.97 36.38 6.43L36.38 6.43L36.38 6.43Q36.93 5.88 37.90 5.88L37.90 5.88L39.93 5.88L39.93 5.88Q40.12 5.88 40.12 6.08L40.12 6.08L40.12 6.59L40.12 6.59Q40.12 6.78 39.93 6.78L39.93 6.78L38.01 6.78L38.01 6.78Q36.85 6.78 36.85 7.99L36.85 7.99L36.85 10.91L36.85 10.91Q36.85 12.12 38.01 12.12L38.01 12.12L39.93 12.12L39.93 12.12Q40.12 12.12 40.12 12.32ZM41.82 6.78L41.82 6.78L41.05 6.78L41.05 6.78Q40.85 6.78 40.85 6.59L40.85 6.59L40.85 6.08L40.85 6.08Q40.85 5.88 41.05 5.88L41.05 5.88L41.82 5.88L41.82 5.88Q41.96 5.88 41.96 5.75L41.96 5.75L41.96 4.55L41.96 4.55Q41.96 4.35 42.15 4.35L42.15 4.35L42.78 4.35L42.78 4.35Q42.97 4.35 42.97 4.55L42.97 4.55L42.97 5.75L42.97 5.75Q42.97 5.88 43.12 5.88L43.12 5.88L44.60 5.88L44.60 5.88Q44.81 5.88 44.81 6.08L44.81 6.08L44.81 6.59L44.81 6.59Q44.81 6.78 44.60 6.78L44.60 6.78L43.12 6.78L43.12 6.78Q42.97 6.78 42.97 6.90L42.97 6.90L42.97 10.93L42.97 10.93Q42.97 12.12 44.20 12.12L44.20 12.12L44.74 12.12L44.74 12.12Q44.95 12.12 44.95 12.32L44.95 12.32L44.95 12.84L44.95 12.84Q44.95 13.02 44.74 13.02L44.74 13.02L44.07 13.02L44.07 13.02Q43.11 13.02 42.53 12.48L42.53 12.48L42.53 12.48Q41.96 11.94 41.96 10.98L41.96 10.98L41.96 6.90L41.96 6.90Q41.96 6.78 41.82 6.78Z"></path></g><defs data-v-fde0c5aa=""><linearGradient data-v-fde0c5aa="" gradientTransform="rotate(25)" id="0a8ec2f5-8e4c-49ea-94d9-1aa2e987f009" x1="0%" y1="0%" x2="100%" y2="0%"><stop data-v-fde0c5aa="" offset="0%" stop-color="#EA1F59" stop-opacity="1"></stop><stop data-v-fde0c5aa="" offset="100%" stop-color="#FA9169" stop-opacity="1"></stop></linearGradient></defs><g data-v-fde0c5aa="" id="d198cab2-8cfc-4285-8167-c466766b5eca" stroke="none" fill="url(#0a8ec2f5-8e4c-49ea-94d9-1aa2e987f009)" transform="matrix(0.4505337433110609,0,0,0.4505337433110609,99.88307613896062,36.154243853665896)"><path d="M113.793 8.536L4.978 66.264v119.542l106.772 57.729 105.75-57.729V66.264L113.793 8.536zM98.467 190.569l-48.021-26.36V89.046l47 28.304h1.021v73.219zm12.262-87.523h-7.663l-36.66-22.21 47.842-24.607 42.037 23.668-45.556 23.149zm62.326 58.96l-56.41 29.375V117.35h2.043l54.367-28.011v72.667z"></path></g><defs data-v-fde0c5aa=""><!----></defs><g data-v-fde0c5aa="" id="90ea8a0e-3ae8-4872-888c-a4ea743d67c8" fill="#000000" transform="matrix(0.902127822607996,0,0,0.902127822607996,42.09649332956391,249.5443388284876)"><path d="M5.25 2.10C2.44 2.10 0.55 4.21 0.55 6.85C0.55 9.48 2.44 11.59 5.25 11.59C8.06 11.59 9.95 9.48 9.95 6.85C9.95 4.21 8.06 2.10 5.25 2.10ZM5.25 10.57C3.00 10.57 1.60 8.93 1.60 6.85C1.60 4.76 3.00 3.12 5.25 3.12C7.50 3.12 8.90 4.76 8.90 6.85C8.90 8.93 7.50 10.57 5.25 10.57ZM22.75 2.10C19.94 2.10 18.05 4.21 18.05 6.85C18.05 9.48 19.94 11.59 22.75 11.59C25.56 11.59 27.45 9.48 27.45 6.85C27.45 4.21 25.56 2.10 22.75 2.10ZM22.75 10.57C20.50 10.57 19.10 8.93 19.10 6.85C19.10 4.76 20.50 3.12 22.75 3.12C25.00 3.12 26.40 4.76 26.40 6.85C26.40 8.93 25.00 10.57 22.75 10.57ZM37.18 8.18L40.31 8.18C42.28 8.18 43.50 7.03 43.50 5.19C43.50 3.37 42.28 2.21 40.31 2.21L36.13 2.21L36.13 11.48L37.18 11.48ZM40.24 3.21C41.69 3.21 42.45 3.96 42.45 5.19C42.45 6.44 41.69 7.20 40.24 7.20L37.18 7.20L37.18 3.21ZM68.60 3.22L68.60 2.21L61.91 2.21L61.91 11.48L62.96 11.48L62.96 7.46L67.98 7.46L67.98 6.44L62.96 6.44L62.96 3.22ZM81.19 2.10C78.37 2.10 76.48 4.21 76.48 6.85C76.48 9.48 78.37 11.59 81.19 11.59C84 11.59 85.89 9.48 85.89 6.85C85.89 4.21 84 2.10 81.19 2.10ZM81.19 10.57C78.93 10.57 77.53 8.93 77.53 6.85C77.53 4.76 78.93 3.12 81.19 3.12C83.44 3.12 84.84 4.76 84.84 6.85C84.84 8.93 83.44 10.57 81.19 10.57ZM95.62 7.92L98.84 7.92L101.08 11.48L102.33 11.48L99.89 7.74C100.93 7.50 102.13 6.90 102.13 5.11C102.13 3.35 100.91 2.21 99.01 2.21L94.57 2.21L94.57 11.48L95.62 11.48ZM95.62 3.21L98.88 3.21C100.20 3.21 101.08 3.93 101.08 5.11C101.08 6.55 99.82 6.93 98.83 6.93L95.62 6.93ZM128.72 2.21L125.45 6.61L122.14 2.21L120.92 2.21L120.92 11.48L121.97 11.48L121.97 3.81L125.45 8.22L128.88 3.81L128.88 11.48L129.93 11.48L129.93 2.21ZM143.36 2.21L142.04 2.21L138.11 11.48L139.27 11.48L140.41 8.79L145.00 8.79L146.13 11.48L147.29 11.48ZM140.81 7.83L142.70 3.30L144.59 7.83ZM159.26 10.57C157.01 10.57 155.75 8.93 155.75 6.85C155.75 4.76 157.01 3.12 159.26 3.12C160.79 3.12 161.80 3.85 162.27 4.98L163.38 4.98C162.79 3.29 161.28 2.10 159.18 2.10C156.39 2.10 154.70 4.21 154.70 6.85C154.70 9.48 156.39 11.59 159.18 11.59C161.28 11.59 162.79 10.40 163.38 8.71L162.27 8.71C161.80 9.84 160.79 10.57 159.26 10.57ZM178.39 2.21L178.39 6.33L173.00 6.33L173.00 2.21L171.95 2.21L171.95 11.48L173.00 11.48L173.00 7.35L178.39 7.35L178.39 11.48L179.44 11.48L179.44 2.21ZM189.76 2.21L188.71 2.21L188.71 11.48L189.76 11.48ZM205.97 2.21L205.97 10.01L200.24 2.21L199.02 2.21L199.02 11.48L200.07 11.48L200.07 3.65L205.80 11.48L207.02 11.48L207.02 2.21ZM223.10 3.22L223.10 2.21L216.29 2.21L216.29 11.48L223.10 11.48L223.10 10.47L217.34 10.47L217.34 7.35L222.49 7.35L222.49 6.33L217.34 6.33L217.34 3.22ZM232.30 4.65C232.30 4.03 232.67 3.08 234.77 3.08C236.46 3.08 237.24 3.82 237.36 4.75L238.43 4.75C238.35 3.36 237.23 2.10 234.77 2.10C232.44 2.10 231.28 3.15 231.28 4.66C231.28 7.84 237.62 6.69 237.62 8.96C237.62 10.05 236.64 10.60 235.07 10.60C233.46 10.60 232.16 10.05 232.09 8.71L231.00 8.71C231.14 10.37 232.26 11.59 235.00 11.59C237.29 11.59 238.67 10.64 238.67 8.92C238.67 5.68 232.30 6.80 232.30 4.65Z"></path></g></svg>